# AST/ASF file generated using VICON BodyLanguage
# -----------------------------------------------
:version 1.10
:name VICON
:units
  mass 1.0
  length 0.45
  angle deg
:documentation
   .ast/.asf automatically generated from VICON data using
   VICON BodyBuilder and BodyLanguage model FoxedUp or BRILLIANT.MOD
:root
   order TX TY TZ RX RY RZ
   axis XYZ
   position 0 0 0  
   orientation 0 0 0 
:bonedata
  begin
     id 1 
     name lhipjoint
     direction 0.661853 -0.702389 0.261917 
     length 2.64193 
     axis 0 0 0  XYZ
  end
  begin
     id 2 
     name lfemur
     direction 0.34202 -0.939693 0  
     length 7.01722  
     axis 0 0 20  XYZ
    dof rx ry rz
    limits (-160.0 20.0)
           (-70.0 70.0)
           (-60.0 70.0)
  end
  begin
     id 3 
     name ltibia
     direction 0.34202 -0.939693 0   
     length 8.25008   
     axis 0 0 20   XYZ
    dof rx
    limits (-10.0 170.0)
  end
  begin
     id 4 
     name lfoot
     direction 0.0709916 -0.195048 0.978221   
     length 2.31941   
     axis -90 7.62852e-016 20   XYZ
    dof rx rz
    limits (-45.0 90.0)
           (-70.0 20.0)
  end
  begin
     id 5 
     name ltoes
     direction 1.53586e-011 -4.22017e-011 1   
     length 1.16486   
     axis -90 7.62852e-016 20   XYZ
    dof rx
    limits (-90.0 20.0)
  end
  begin
     id 6 
     name rhipjoint
     direction -0.638185 -0.721362 0.268992   
     length 2.57244  
     axis 0 0 0  XYZ 
  end
  begin
     id 7 
     name rfemur
     direction -0.34202 -0.939693 0   
     length 7.07017   
     axis 0 0 -20   XYZ
    dof rx ry rz
    limits (-160.0 20.0)
           (-70.0 70.0)
           (-70.0 60.0)
  end
  begin
     id 8 
     name rtibia
     direction -0.34202 -0.939693 0   
     length 8.20386   
     axis 0 0 -20   XYZ
    dof rx
    limits (-10.0 170.0)
 end
 begin
     id 9 
     name rfoot
     direction -0.0822429 -0.225961 0.970658   
     length 2.32215  
     axis -90 -7.62852e-016 -20   XYZ
    dof rx rz
    limits (-45.0 90.0)
           (-20.0 70.0)
  end
  begin
     id 10 
     name rtoes
     direction -1.53597e-011 -4.21689e-011 1   
     length 1.16333   
     axis -90 -7.62852e-016 -20   XYZ
    dof rx
    limits (-90.0 20.0)
  end
  begin
     id 11 
     name lowerback
     direction -0.0131557 0.998589 -0.0514484   
     length 2.14993   
     axis 0 0 0   XYZ
    dof rx ry rz
    limits (-20.0 45.0)
           (-30.0 30.0)
           (-30.0 30.0)
  end
  begin
     id 12 
     name upperback
     direction -0.000776481 0.999993 0.00352685   
     length 2.15301   
     axis 0 0 0   XYZ
    dof rx ry rz
    limits (-20.0 45.0)
           (-30.0 30.0)
           (-30.0 30.0)
  end
  begin
     id 13 
     name thorax
     direction 0.00438186 0.999609 0.0276143   
     length 2.15424   
     axis 0 0 0   XYZ
    dof rx ry rz
    limits (-20.0 45.0)
           (-30.0 30.0)
           (-30.0 30.0)
  end
  begin
     id 14 
     name lowerneck
     direction -0.0488006 0.998094 0.0377807   
     length 1.90481   
     axis 0 0 0   XYZ
    dof rx ry rz
    limits (-20.0 45.0)
           (-30.0 30.0)
           (-30.0 30.0)
  end
  begin
     id 15 
     name upperneck
     direction 0.0443769 0.990702 -0.12861   
     length 1.91305   
     axis 0 0 0   XYZ
    dof rx ry rz
    limits (-20.0 45.0)
           (-30.0 30.0)
           (-30.0 30.0)
  end
  begin
     id 16
     name head
     direction 0.0165599 0.998647 -0.0492982  
     length 1.92369  
     axis 0 0 0   XYZ
    dof rx ry rz
    limits (-20.0 45.0)
           (-30.0 30.0)
           (-30.0 30.0)
  end
  begin
     id 17 
     name lclavicle
     direction 0.911936 0.410197 -0.0105506  
     length 3.52622  
     axis 0 0 0   XYZ
    dof ry rz
    limits (-20.0 10.0)
           (0.0 20.0)
  end
  begin
     id 18 
     name lhumerus
     direction 1 -4.48974e-011 -2.48591e-028   
     length 5.47651   
     axis 180 -30 -90   XYZ
    dof rx ry rz
    limits (-60.0 90.0)
           (-90.0 90.0)
           (-90.0 90.0)
  end
  begin
     id 19
     name lradius
     direction 1 -4.48938e-011 -4.40099e-027   
     length 3.09058   
     axis 180 -30 -90   XYZ
    dof rx
    limits (-10.0 170.0)
  end
  begin
     id 20
     name lwrist
     direction 1 -4.49042e-011 -2.99852e-027   
     length 1.54529   
     axis 1.95339e-015 90 90   XYZ
    dof ry
    limits (-180.0 0.0)
 end
  begin
     id 21 
     name lhand
     direction 1 -4.48815e-011 -5.98193e-027   
     length 0.771611   
     axis 3.82337e-015 90 90   XYZ
    dof rx rz
    limits (-90.0 90.0)
           (-45.0 45.0)
  end
  begin
     id 22 
     name lfingers
     direction 1 -4.49034e-011 -1.1993e-026   
     length 0.622093   
     axis 7.64668e-015 90 90   XYZ
    dof rx
    limits (0.0 90.0)
  end
  begin
     id 23
     name lthumb
     direction 0.707107 -6.34867e-011 0.707107   
     length 0.893204   
     axis -90 45 -1.62303e-014   XYZ
    dof rx rz
    limits (-45.0 45.0)
           (-45.0 45.0)
  end
  begin
     id 24 
     name rclavicle
     direction -0.93442 0.355634 -0.0195692   
     length 3.62463  
     axis 0 0 0   XYZ 
    dof ry rz
    limits (-10.0 20.0)
           (-20.0 0.0)
  end
  begin
     id 25 
     name rhumerus
     direction -1 -4.48957e-011 -1.19147e-027  
     length 5.14182   
     axis 180 30 90   XYZ
    dof rx ry rz
    limits (-90.0 60.0)
           (-90.0 90.0)
           (-90.0 90.0)
  end
  begin
     id 26 
     name rradius
     direction -1 -4.48952e-011 -3.81062e-027   
     length 3.35565   
     axis 180 30 90   XYZ
    dof rx
    limits (-10.0 170.0)
  end
  begin
     id 27 
     name rwrist
     direction -1 -4.48973e-011 -2.99621e-027   
     length 1.67782   
     axis 1.95339e-015 -90 -90   XYZ
    dof ry
    limits (-180.0 0.0)
  end
  begin
     id 28
     name rhand
     direction -1 -4.48895e-011 -5.98727e-027   
     length 0.801042   
     axis 3.82337e-015 -90 -90   XYZ
    dof rx rz
    limits (-90.0 90.0)
           (-45.0 45.0)
  end
  begin
     id 29
     name rfingers
     direction -1 -4.49065e-011 -1.19972e-026   
     length 0.645821   
     axis 7.64668e-015 -90 -90   XYZ
    dof rx
    limits (0.0 90.0)
  end
  begin
     id 30
     name rthumb
     direction -0.707107 -6.34957e-011 0.707107   
     length 0.927273   
     axis -90 -45 1.62303e-014   XYZ
    dof rx rz
    limits (-45.0 45.0)
           (-45.0 45.0)
  end
:hierarchy
  begin
    root lhipjoint rhipjoint lowerback
    lhipjoint lfemur
    lfemur ltibia
    ltibia lfoot
    lfoot ltoes
    rhipjoint rfemur
    rfemur rtibia
    rtibia rfoot
    rfoot rtoes
    lowerback upperback
    upperback thorax
    thorax lowerneck lclavicle rclavicle
    lowerneck upperneck
    upperneck head
    lclavicle lhumerus
    lhumerus lradius
    lradius lwrist
    lwrist lhand lthumb
    lhand lfingers
    rclavicle rhumerus
    rhumerus rradius
    rradius rwrist
    rwrist rhand rthumb
    rhand rfingers
  end

#!OML:ASF E:\Style4\Style4.ASF
:FULLY-SPECIFIED
:DEGREES
404
root 0.588936 17.0196 -1.45817 6.53765 -7.87341 2.09365
lowerback 17.4615 3.70788 0.588793
upperback 8.75362 4.90604 1.47645
thorax -0.488825 2.41159 0.365083
lowerneck 3.83529 -8.34827 -6.20609
upperneck -5.91169 -11.2433 5.66877
head -1.84332 -5.65367 3.14822
rclavicle -5.88403e-014 1.35174e-014
rhumerus -9.89765 10.4716 -84.6608
rradius 108.747
rwrist 24.9445
rhand 17.1921 -2.84421
rfingers 7.12502
rthumb 41.9109 -27.4641
lclavicle -5.88403e-014 1.35174e-014
lhumerus -7.92546 -22.817 76.5867
lradius 131.888
lwrist -8.74906
lhand 18.7336 39.3697
lfingers 7.12502
lthumb 43.3536 63.4895
rfemur -35.1385 0.460577 14.5737
rtibia 50.5774
rfoot -20.0581 -12.3203
rtoes -16.0203
lfemur -33.2871 3.66312 -22.1202
ltibia 51.6704
lfoot -24.5433 10.4714
ltoes -15.3099
405
root 0.605526 17.0566 -1.45934 6.76612 -8.0102 1.97498
lowerback 17.4106 3.50442 0.618597
upperback 8.59247 4.64802 1.46956
thorax -0.630808 2.28321 0.382429
lowerneck 3.87749 -8.26992 -6.07565
upperneck -5.80543 -11.137 5.60212
head -1.83369 -5.602 3.10189
rclavicle 5.80451e-014 -1.03368e-014
rhumerus -11.371 10.8148 -85.4414
rradius 109.394
rwrist 24.9995
rhand 17.246 -2.89135
rfingers 7.12502
rthumb 41.9614 -27.4943
lclavicle 5.80451e-014 -1.03368e-014
lhumerus -7.55822 -22.6438 76.366
lradius 131.854
lwrist -8.8131
lhand 18.3536 39.5111
lfingers 7.12502
lthumb 42.9984 63.7576
rfemur -35.0136 0.556757 14.6317
rtibia 49.8121
rfoot -19.6978 -12.2144
rtoes -16.0502
lfemur -33.2877 3.52778 -22.0256
ltibia 51.2466
lfoot -24.2731 10.6292
ltoes -15.0333
406
root 0.620704 17.0909 -1.46176 6.98719 -8.19688 1.84164
lowerback 17.4013 3.30686 0.582452
upperback 8.42548 4.38905 1.50771
thorax -0.809017 2.15135 0.481529
lowerneck 3.97247 -8.15207 -6.06967
upperneck -5.76085 -10.9878 5.52856
head -1.85017 -5.52613 3.08048
rclavicle -4.29375e-014 -2.46493e-014
rhumerus -12.6776 11.3026 -86.0723
rradius 109.918
rwrist 24.828
rhand 17.5529 -2.9703
rfingers 7.12502
rthumb 42.249 -27.4764
lclavicle -4.29375e-014 -2.46493e-014
lhumerus -7.14674 -22.3887 76.182
lradius 131.62
lwrist -8.94507
lhand 17.9044 39.1298
lfingers 7.12502
lthumb 42.5781 63.5232
rfemur -34.9015 0.671594 14.7141
rtibia 49.0472
rfoot -19.2844 -12.1479
rtoes -16.4279
lfemur -33.3133 3.44128 -21.921
ltibia 50.8798
lfoot -24.0883 10.7656
ltoes -14.6684
407
root 0.634799 17.1235 -1.46378 7.22357 -8.37325 1.65281
lowerback 17.3314 3.09309 0.56907
upperback 8.29883 4.11235 1.59058
thorax -0.913453 2.01101 0.623484
lowerneck 4.01415 -8.01009 -6.1928
upperneck -5.68897 -10.811 5.47675
head -1.84185 -5.43424 3.0836
rclavicle -5.64548e-014 -1.03368e-014
rhumerus -13.6164 11.8704 -86.5474
rradius 110.184
rwrist 24.7281
rhand 17.7853 -3.02573
rfingers 7.12502
rthumb 42.4667 -27.4575
lclavicle -5.64548e-014 -1.03368e-014
lhumerus -6.57515 -21.9919 75.9414
lradius 131.252
lwrist -9.10421
lhand 17.8883 38.6877
lfingers 7.12502
lthumb 42.563 63.0863
rfemur -34.7978 0.777555 14.8635
rtibia 48.3277
rfoot -18.8838 -12.1194
rtoes -16.9148
lfemur -33.3677 3.37353 -21.7604
ltibia 50.5439
lfoot -23.88 10.9594
ltoes -14.4704
408
root 0.649357 17.153 -1.46603 7.44849 -8.49077 1.49292
lowerback 17.262 2.87973 0.612654
upperback 8.14369 3.84384 1.59721
thorax -1.03811 1.87807 0.65159
lowerneck 4.12176 -7.90697 -6.18961
upperneck -5.58695 -10.6788 5.48171
head -1.83612 -5.36957 3.08651
rclavicle 6.36111e-015 -3.18055e-015
rhumerus -14.7265 12.3386 -87.0605
rradius 110.57
rwrist 24.7184
rhand 17.6839 -3.04463
rfingers 7.12502
rthumb 42.3716 -27.5089
lclavicle 6.36111e-015 -3.18055e-015
lhumerus -6.0026 -21.7623 75.556
lradius 130.831
lwrist -9.2523
lhand 17.8129 38.4799
lfingers 7.12502
lthumb 42.4924 62.9028
rfemur -34.6794 0.856081 14.9753
rtibia 47.6767
rfoot -18.5859 -12.0261
rtoes -16.9228
lfemur -33.4308 3.28968 -21.6265
ltibia 50.2415
lfoot -23.6812 11.113
ltoes -14.2943
409
root 0.665105 17.1807 -1.46606 7.64585 -8.52089 1.50365
lowerback 17.1558 2.66556 0.601766
upperback 7.99735 3.56359 1.51066
thorax -1.13146 1.74028 0.616926
lowerneck 4.22116 -7.8321 -6.0889
upperneck -5.46898 -10.5775 5.4925
head -1.82629 -5.3225 3.07334
rclavicle 2.82274e-014 1.19271e-014
rhumerus -15.9013 12.6489 -87.5881
rradius 111.151
rwrist 24.5135
rhand 17.7291 -3.12895
rfingers 7.12502
rthumb 42.414 -27.5787
lclavicle 2.82274e-014 1.19271e-014
lhumerus -5.41357 -21.7389 75.1746
lradius 130.377
lwrist -9.37229
lhand 17.4447 38.2506
lfingers 7.12502
lthumb 42.1476 62.791
rfemur -34.5611 0.790826 14.9089
rtibia 47.0929
rfoot -18.3565 -11.9455
rtoes -17.236
lfemur -33.4907 3.0656 -21.6613
ltibia 49.9878
lfoot -23.4973 11.2641
ltoes -14.0898
410
root 0.67943 17.202 -1.46636 7.83116 -8.65842 1.37184
lowerback 17.059 2.40834 0.594818
upperback 7.92802 3.2269 1.48881
thorax -1.15126 1.57307 0.659523
lowerneck 4.114 -7.65419 -6.13639
upperneck -5.33515 -10.3375 5.51255
head -1.77506 -5.20196 3.0752
rclavicle 8.34896e-015 5.56597e-015
rhumerus -16.9014 13.24 -88.0693
rradius 111.717
rwrist 24.2089
rhand 17.7607 -3.0597
rfingers 7.12502
rthumb 42.4436 -27.4994
lclavicle 8.34896e-015 5.56597e-015
lhumerus -4.72389 -21.361 74.7792
lradius 129.82
lwrist -9.53066
lhand 17.2806 38.1135
lfingers 7.12502
lthumb 41.9939 62.7056
rfemur -34.4965 0.87538 14.9874
rtibia 46.5871
rfoot -18.3237 -11.8775
rtoes -17.3552
lfemur -33.5544 2.93598 -21.5309
ltibia 49.8131
lfoot -23.4631 11.3484
ltoes -13.4495
411
root 0.694393 17.2156 -1.46936 8.04538 -8.87348 1.06927
lowerback 16.9133 2.16221 0.667407
upperback 7.89151 2.91523 1.4912
thorax -1.10795 1.41963 0.680562
lowerneck 3.92903 -7.45624 -6.0452
upperneck -5.14269 -10.0613 5.48589
head -1.70226 -5.06423 3.03092
rclavicle -1.03368e-014 1.74931e-014
rhumerus -17.6676 13.9043 -88.5589
rradius 112.098
rwrist 23.9229
rhand 17.6405 -2.96998
rfingers 7.12502
rthumb 42.331 -27.4482
lclavicle -1.03368e-014 1.74931e-014
lhumerus -3.92831 -20.925 74.3347
lradius 129.161
lwrist -9.82813
lhand 17.3506 38.1622
lfingers 7.12502
lthumb 42.0595 62.7323
rfemur -34.5145 1.09632 15.2244
rtibia 46.1488
rfoot -18.4328 -11.6757
rtoes -16.2222
lfemur -33.705 2.91087 -21.2335
ltibia 49.7324
lfoot -23.5193 11.4281
ltoes -12.6619
412
root 0.709334 17.2258 -1.47273 8.21858 -9.10704 0.885156
lowerback 16.6817 2.00212 0.591596
upperback 7.92825 2.69135 1.49832
thorax -0.950278 1.30646 0.77834
lowerneck 3.73349 -7.31177 -5.87544
upperneck -4.97672 -9.8556 5.3798
head -1.63927 -4.96074 2.94804
rclavicle 4.37326e-015 2.22639e-014
rhumerus -18.1265 14.4503 -88.8199
rradius 112.467
rwrist 23.574
rhand 17.7807 -3.24424
rfingers 7.12502
rthumb 42.4623 -27.6775
lclavicle 4.37326e-015 2.22639e-014
lhumerus -2.96634 -20.7199 73.9527
lradius 128.49
lwrist -10.2268
lhand 17.2908 38.3928
lfingers 7.12502
lthumb 42.0034 62.9817
rfemur -34.5714 1.24494 15.3597
rtibia 45.8109
rfoot -18.1651 -11.6165
rtoes -16.2658
lfemur -33.8631 2.93765 -21.0825
ltibia 49.737
lfoot -23.466 11.581
ltoes -12.665
413
root 0.721654 17.2338 -1.47422 8.28698 -9.35784 0.78789
lowerback 16.5728 1.84795 0.40503
upperback 7.98986 2.46057 1.53109
thorax -0.834883 1.18595 0.96177
lowerneck 3.46295 -7.13858 -5.88439
upperneck -4.78953 -9.6193 5.25951
head -1.55001 -4.83788 2.88716
rclavicle 7.95139e-015 1.66979e-014
rhumerus -18.6191 15.087 -88.9177
rradius 113.079
rwrist 23.2197
rhand 18.2005 -3.59161
rfingers 7.12502
rthumb 42.8552 -27.8885
lclavicle 7.95139e-015 1.66979e-014
lhumerus -1.92431 -20.3709 73.6305
lradius 127.712
lwrist -10.6019
lhand 17.3498 38.3062
lfingers 7.12502
lthumb 42.0587 62.8766
rfemur -34.5867 1.38878 15.4184
rtibia 45.5974
rfoot -17.8178 -11.6976
rtoes -17.4813
lfemur -33.9369 2.96372 -21.0072
ltibia 49.8094
lfoot -23.3685 11.6536
ltoes -12.5574
414
root 0.734704 17.2365 -1.47676 8.34644 -9.57262 0.590395
lowerback 16.5801 1.66772 0.360651
upperback 7.93172 2.21961 1.53977
thorax -0.89878 1.06443 1.03533
lowerneck 3.49382 -6.97146 -5.99511
upperneck -4.65393 -9.40374 5.28177
head -1.51865 -4.72941 2.90988
rclavicle -2.94201e-014 -4.77083e-015
rhumerus -19.4515 15.681 -89.1615
rradius 113.851
rwrist 22.9358
rhand 18.4533 -3.80899
rfingers 7.12502
rthumb 43.0916 -28.0225
lclavicle -2.94201e-014 -4.77083e-015
lhumerus -1.04492 -20.0295 73.3353
lradius 126.885
lwrist -10.9913
lhand 17.4412 37.9958
lfingers 7.12502
lthumb 42.1444 62.5373
rfemur -34.6392 1.49571 15.5919
rtibia 45.5344
rfoot -17.7997 -11.6612
rtoes -18.11
lfemur -34.0453 2.99636 -20.8137
ltibia 49.9606
lfoot -23.3049 11.7449
ltoes -12.8651
415
root 0.749664 17.2319 -1.48039 8.41279 -9.79627 0.442154
lowerback 16.5545 1.51867 0.322994
upperback 7.85869 2.01923 1.50115
thorax -0.9596 0.964415 1.04946
lowerneck 3.65787 -6.85372 -6.20273
upperneck -4.60111 -9.25995 5.43092
head -1.52367 -4.6592 3.00205
rclavicle -1.78906e-014 1.66979e-014
rhumerus -20.2976 16.1697 -89.4144
rradius 114.572
rwrist 22.7605
rhand 18.3252 -3.71175
rfingers 7.12502
rthumb 42.9718 -27.9676
lclavicle -1.78906e-014 1.66979e-014
lhumerus -0.229038 -19.8925 73.0861
lradius 126.127
lwrist -11.5408
lhand 17.5166 37.8701
lfingers 7.12502
lthumb 42.2149 62.3877
rfemur -34.816 1.57965 15.7137
rtibia 45.6396
rfoot -17.7505 -11.5594
rtoes -18.6064
lfemur -34.1982 3.00875 -20.6793
ltibia 50.1727
lfoot -23.3029 11.9502
ltoes -13.7044
416
root 0.764972 17.2184 -1.4823 8.43554 -10.0628 0.381808
lowerback 16.4963 1.3985 0.193874
upperback 7.8499 1.84096 1.43956
thorax -0.937506 0.873348 1.08916
lowerneck 3.65868 -6.72492 -6.31825
upperneck -4.48991 -9.09366 5.47549
head -1.49134 -4.57567 3.03281
rclavicle -2.5842e-014 -3.18055e-015
rhumerus -20.971 16.6492 -89.5399
rradius 115.292
rwrist 22.717
rhand 18.0997 -3.45853
rfingers 7.12502
rthumb 42.7609 -27.7884
lclavicle -2.5842e-014 -3.18055e-015
lhumerus 0.66785 -19.7937 72.8449
lradius 125.403
lwrist -12.1725
lhand 17.561 38.0731
lfingers 7.12502
lthumb 42.2566 62.5766
rfemur -35.0452 1.65254 15.738
rtibia 45.8977
rfoot -17.6198 -11.4434
rtoes -18.9467
lfemur -34.3321 3.0517 -20.65
ltibia 50.4484
lfoot -23.4284 12.1194
ltoes -14.264
